
<svg width="588px" height="417px" viewBox="387 82 588 417" version="1.1" xmlns="http://www.w3.org/2000/svg" xmlns:xlink="http://www.w3.org/1999/xlink">
    <!-- Generator: Sketch 41.2 (35397) - http://www.bohemiancoding.com/sketch -->
    <desc>Created with Sketch.</desc>
    <defs></defs>
    <g id="Group-5" stroke="none" stroke-width="1" fill="none" fill-rule="evenodd" transform="translate(388.000000, 84.000000)">
        <path d="M365.42368,377 C324.786379,377 284.615786,381.695486 284.615786,386.773782 C284.615786,387.364958 280.141161,386.647794 280.997594,387.209895 C264.68205,386.105075 258.191437,386.192298 238.329872,386.192298 C174.631408,386.192298 123,392.641928 123,400.593726 C123,408.55037 174.631408,415 238.329872,415 C302.023524,415 353.659744,408.55037 353.659744,400.593726 C353.659744,398.611834 357.042176,396.964295 351.234785,395.24407 C357.83125,395.486356 358.196918,395.37975 365.42368,395.37975 C406.056169,395.37975 439,391.265749 439,386.192298 C439,381.114002 406.056169,377 365.42368,377" id="Fill-33" fill="#000000" opacity="0.0599999987"></path>
        <g id="Group-8">
            <path d="M310.417042,317.786834 C274.354268,402.924101 169.335949,356.213895 169.335949,356.213895 C118.775188,329.848359 137.839016,253.227788 137.839016,253.227788 C127.405085,303.073119 145.04719,332.712328 145.04719,332.712328 C136.688098,347.667511 132.410982,332.765768 132.410982,332.765768 C126.608601,330.293689 129.551607,344.678849 129.551607,344.678849 C115.786384,353.648792 113.803141,328.201626 113.803141,328.201626 C113.803141,328.201626 104.685398,289.479657 138.667359,228.512943 L176.281284,174.845687 C176.281284,174.845687 214.777315,129.384386 264.977668,154.109127 C264.977668,154.109127 280.955123,156.282339 293.438008,198.115683 C293.438008,198.115683 307.69506,245.03173 349.735441,250.743834 C349.735441,250.743834 360.619386,249.263358 366.969349,245.053502 C366.969349,245.053502 384.217196,243.806577 380.284559,257.077421 C380.284559,257.077421 351.248759,286.671107 315.811225,276.503721 C315.811225,276.503721 321.304969,292.082366 310.417042,317.786834 Z" id="Fill-2" fill="#FFCD48"></path>
            <path d="M310.417042,317.786834 C274.354268,402.924101 169.335949,356.213895 169.335949,356.213895 C118.775188,329.848359 137.839016,253.227788 137.839016,253.227788 C127.405085,303.073119 145.04719,332.712328 145.04719,332.712328 C136.688098,347.667511 132.410982,332.765768 132.410982,332.765768 C126.608601,330.293689 129.551607,344.678849 129.551607,344.678849 C115.786384,353.648792 113.803141,328.201626 113.803141,328.201626 C113.803141,328.201626 104.685398,289.479657 138.667359,228.512943 L176.281284,174.845687 C176.281284,174.845687 214.777315,129.384386 264.977668,154.109127 C264.977668,154.109127 280.955123,156.282339 293.438008,198.115683 C293.438008,198.115683 307.69506,245.03173 349.735441,250.743834 C349.735441,250.743834 360.619386,249.263358 366.969349,245.053502 C366.969349,245.053502 384.217196,243.806577 380.284559,257.077421 C380.284559,257.077421 351.248759,286.671107 315.811225,276.503721 C315.811225,276.503721 321.304969,292.082366 310.417042,317.786834 Z" id="Stroke-4" stroke="#F1C24C" stroke-width="3"></path>
            <path d="M435.073529,150.840564 C435.073529,169.18813 417.55499,192.335907 403.691176,192.335907 C386.109201,192.335907 372.308824,169.18813 372.308824,150.840564 C372.308824,132.492998 388.888103,115.401544 403.691176,115.401544 C418.49425,115.401544 435.073529,132.492998 435.073529,150.840564" id="Fill-8" fill="#F48C8E"></path>
            <path d="M366.602941,256.447876 L366.602941,239.351351" id="Stroke-9" stroke="#F48C8E" stroke-linecap="round" stroke-linejoin="round"></path>
            <path d="M366.602941,238.75795 L366.602941,232.028364 C366.602941,225.957342 370.913688,221.035851 376.231618,221.035851 C381.549548,221.035851 385.860294,225.957342 385.860294,232.028364 L385.860294,241.179261 C385.860294,247.252254 390.17104,252.173745 395.488971,252.173745 C400.806901,252.173745 405.117647,247.252254 405.117647,241.179261 L405.117647,193.760618" id="Stroke-10" stroke="#EE5E7A" stroke-linecap="round" stroke-linejoin="round"></path>
            <path d="M383.720588,255.023166 C383.720588,261.318372 379.060084,266.420849 373.310165,266.420849 C367.560245,266.420849 366.602941,261.318372 366.602941,255.023166 C366.602941,248.72796 367.560245,243.625483 373.310165,243.625483 C379.060084,243.625483 383.720588,248.72796 383.720588,255.023166" id="Fill-11" fill="#FFCF48"></path>
            <path d="M383.720588,255.023166 C383.720588,261.318372 379.060084,266.420849 373.310165,266.420849 C367.560245,266.420849 366.602941,261.318372 366.602941,255.023166 C366.602941,248.72796 367.560245,243.625483 373.310165,243.625483 C379.060084,243.625483 383.720588,248.72796 383.720588,255.023166 Z" id="Stroke-12" stroke="#F1C24C"></path>
            <path d="M405.117647,122.525102 C405.117647,122.525102 393.182086,122.47442 388,132.498069" id="Stroke-16" stroke="#FEFEFE" stroke-width="2" stroke-linecap="round" stroke-linejoin="round"></path>
            <path d="M560.186993,298.139239 L560.186993,209.501042 L560.186993,201.279064 C560.186993,197.390021 559.724827,193.608951 558.850732,189.99184 C553.845283,169.256941 535.358677,153.868726 513.321437,153.868726 C487.43818,153.868726 466.455882,175.095505 466.455882,201.279064 C466.455882,202.79869 466.526212,204.300321 466.666871,205.781956 L466.666871,300.600633 L466.455882,309.064551 C466.455882,313.839377 470.346107,317.710425 475.144587,317.710425 C479.943067,317.710425 483.831282,313.839377 483.831282,309.064551 L483.831282,308.044802 L483.847358,305.36946 C484.030214,303.162003 485.76032,301.430429 487.870204,301.430429 C490.098644,301.430429 491.907116,303.365953 491.907116,305.753366 L491.907116,309.064551 C491.907116,313.839377 495.797341,317.710425 500.595821,317.710425 C505.394301,317.710425 509.284525,313.839377 509.284525,309.064551 L509.284525,305.753366 C509.284525,303.365953 511.090988,301.430429 513.321437,301.430429 C515.549877,301.430429 517.35835,303.365953 517.35835,305.753366 L517.35835,309.064551 C517.35835,313.839377 521.248574,317.710425 526.047054,317.710425 C530.845534,317.710425 534.735759,313.839377 534.735759,309.064551 L534.735759,305.753366 C534.735759,303.365953 536.542222,301.430429 538.772671,301.430429 C541.00312,301.430429 542.809583,303.365953 542.809583,305.753366 L543.227541,309.064551 C543.227541,313.839377 547.115757,317.710425 551.914236,317.710425 C556.712716,317.710425 560.602941,313.839377 560.602941,309.064551 L560.186993,298.139239 Z" id="Fill-17" stroke="#5EBAA8" stroke-width="3" fill="#8BD0C5"></path>
            <path d="M445.058824,206.583012 C445.058824,210.516503 441.864821,213.706564 437.926471,213.706564 C433.986151,213.706564 430.794118,210.516503 430.794118,206.583012 C430.794118,202.649521 433.986151,199.459459 437.926471,199.459459 C441.864821,199.459459 445.058824,202.649521 445.058824,206.583012 Z" id="Stroke-23" stroke="#C5BAA3" stroke-width="2"></path>
            <path d="M11.674565,263.460215 L2.458316,273.103419 L0.441527244,273.150263 C-0.12834524,272.606965 -0.149344009,271.705132 0.39462518,271.135963 L9.6108742,261.492759 L0.441527244,252.751 L0.39462518,250.7367 C0.938594368,250.167531 1.84154145,250.146558 2.41141393,250.689856 L11.5807609,259.431614 L20.8190904,249.765307 C21.3630596,249.196137 22.2660067,249.175165 22.8358792,249.718463 C23.4057517,250.261761 23.4267504,251.163593 22.8827812,251.732763 L13.6444517,261.39907 L23.8084728,271.089119 C24.3783452,271.632417 24.399344,272.53425 23.8553748,273.103419 C23.3114056,273.672588 22.4084586,273.693561 21.8385861,273.150263 L11.674565,263.460215 Z M492.178157,119.577639 L483.189888,129.196044 L481.173752,129.26548 C480.597813,128.728601 480.566687,127.82706 481.10423,127.251832 L490.092499,117.633427 L481.173752,109.319534 L481.10423,107.305886 C481.641773,106.730659 482.544427,106.699571 483.120366,107.23645 L492.039113,115.550343 L501.074818,105.881176 C501.612361,105.305948 502.515016,105.274861 503.090954,105.81174 C503.666892,106.348619 503.698018,107.25016 503.160476,107.825388 L494.124771,117.494555 L504.517425,127.182396 C505.093363,127.719275 505.124489,128.620816 504.586946,129.196044 C504.049404,129.771272 503.146749,129.80236 502.570811,129.26548 L492.178157,119.577639 Z M325.235294,164.431833 L317.685138,171.972673 L315.667804,171.972673 C315.110732,171.416289 315.110732,170.514213 315.667804,169.957829 L323.21796,162.416988 L315.667804,154.876148 L315.667804,152.861303 C316.224875,152.304919 317.128066,152.304919 317.685138,152.861303 L325.235294,160.402144 L332.785451,152.861303 C333.342522,152.304919 334.245713,152.304919 334.802785,152.861303 C335.359856,153.417687 335.359856,154.319764 334.802785,154.876148 L327.252628,162.416988 L334.802785,169.957829 C335.359856,170.514213 335.359856,171.416289 334.802785,171.972673 C334.245713,172.529057 333.342522,172.529057 332.785451,171.972673 L325.235294,164.431833 Z M325.235294,164.431833 L327.252628,162.416988 L325.235294,160.402144 L323.21796,162.416988 L325.235294,164.431833 Z M492.178157,119.577639 L494.124771,117.494555 L492.039113,115.550343 L490.092499,117.633427 L492.178157,119.577639 Z M11.674565,263.460215 L13.6444517,261.39907 L11.5807609,259.431614 L9.6108742,261.492759 L11.674565,263.460215 Z" id="Combined-Shape" fill="#51ABB9"></path>
            <path d="M192.573529,48.4401544 L209.691176,31.3436293" id="Stroke-24" stroke="#51ABB9" stroke-width="2" stroke-linecap="round" stroke-linejoin="round"></path>
            <path d="M192.573529,31.3436293 L209.691176,48.4401544" id="Stroke-25" stroke="#51ABB9" stroke-width="2" stroke-linecap="round" stroke-linejoin="round"></path>
            <path d="M358.044118,22.7953668 L378.014706,1.42471042" id="Stroke-26" stroke="#51ABB9" stroke-width="2" stroke-linecap="round" stroke-linejoin="round"></path>
            <path d="M358.044118,2.84942085 L379.441176,22.7953668" id="Stroke-27" stroke="#51ABB9" stroke-width="2" stroke-linecap="round" stroke-linejoin="round"></path>
            <path d="M564.882353,17.0965251 L582,0" id="Stroke-24" stroke="#51ABB9" stroke-width="2" stroke-linecap="round" stroke-linejoin="round"></path>
            <path d="M564.882353,1.42471042 L582,18.5212355" id="Stroke-25" stroke="#51ABB9" stroke-width="2" stroke-linecap="round" stroke-linejoin="round"></path>
            <g id="Group-4" transform="translate(1.426471, 250.749035)"></g>
            <path d="M221.950311,180.315219 C221.950311,180.315219 231.561616,183.886921 243.994169,179.65499 C243.994169,179.65499 249.432696,178.286073 247.949635,184.064597 C247.949635,184.064597 247.37776,189.956188 234.390489,190.897066 C234.390489,190.897066 220.143187,191.464419 216.372628,185.409285 C216.372628,185.409285 211.946319,177.767177 221.950311,180.315219" id="Fill-28" fill="#D49A28"></path>
            <path d="M212.544118,175.239382 C212.544118,172.879405 210.627599,170.965251 208.264706,170.965251 C205.901813,170.965251 203.985294,172.879405 203.985294,175.239382 C203.985294,177.599359 205.901813,179.513514 208.264706,179.513514 C210.627599,179.513514 212.544118,177.599359 212.544118,175.239382" id="Fill-29" fill="#D49A28"></path>
            <path d="M261.044118,175.239382 C261.044118,172.879405 259.127599,170.965251 256.764706,170.965251 C254.401813,170.965251 252.485294,172.879405 252.485294,175.239382 C252.485294,177.599359 254.401813,179.513514 256.764706,179.513514 C259.127599,179.513514 261.044118,177.599359 261.044118,175.239382" id="Fill-30" fill="#D49A28"></path>
            <path d="M186.867647,165.266409 L188.015436,133.591801 C188.015436,133.591801 192.626979,121.51411 202.789906,133.591801 L219.676471,146.765239 C219.676471,146.765239 219.548032,162.96269 186.867647,165.266409" id="Fill-31" stroke="#F1C24C" stroke-width="3" fill="#FFFFFF"></path>
            <path d="M272.455882,162.207484 L269.747597,132.824103 C269.747597,132.824103 266.101973,122.473732 258.073302,132.824103 L243.926471,147.990217 C243.926471,147.990217 251.132849,164.44723 272.455882,162.207484" id="Fill-32" stroke="#F1C24C" stroke-width="3" fill="#FFFFFF"></path>
            <path d="M112.691176,240.776062 L129.808824,223.679537" id="Stroke-34" stroke="#51ABB9" stroke-width="2" stroke-linecap="round" stroke-linejoin="round"></path>
            <path d="M112.691176,186.637066 L129.808824,203.733591" id="Stroke-35" stroke="#51ABB9" stroke-width="2" stroke-linecap="round" stroke-linejoin="round"></path>
            <path d="M510.676471,193.760618 C510.676471,193.760618 514.955882,200.100875 519.235294,193.866142" id="Stroke-18" stroke="#48A08F" stroke-width="2" stroke-linecap="round" stroke-linejoin="round"></path>
            <path d="M502.117647,183.787645 C502.117647,186.148334 500.201405,188.061776 497.837262,188.061776 C495.475065,188.061776 493.558824,186.148334 493.558824,183.787645 C493.558824,181.426955 495.475065,179.513514 497.837262,179.513514 C500.201405,179.513514 502.117647,181.426955 502.117647,183.787645" id="Fill-19" fill="#48A08F"></path>
            <path d="M536.352941,183.787645 C536.352941,186.148334 534.436699,188.061776 532.072556,188.061776 C529.710359,188.061776 527.794118,186.148334 527.794118,183.787645 C527.794118,181.426955 529.710359,179.513514 532.072556,179.513514 C534.436699,179.513514 536.352941,181.426955 536.352941,183.787645" id="Fill-20" fill="#48A08F"></path>
        </g>
        <path d="M587,371 C587,375.415393 557.44847,379 521,379 C484.547214,379 455,375.415393 455,371 C455,366.584607 484.547214,363 521,363 C557.44847,363 587,366.584607 587,371" id="Fill-14" fill="#000000" opacity="0.0599999987"></path>
    </g>
</svg>